 

 <?xml version="1.0" encoding="utf-8"?>
<!-- Generator: Adobe Illustrator 17.0.0, SVG Export Plug-In . SVG Version: 6.00 Build 0)  -->
<!DOCTYPE svg PUBLIC "-//W3C//DTD SVG 1.1//EN" "http://www.w3.org/Graphics/SVG/1.1/DTD/svg11.dtd">
<svg version="1.1" id="Layer_1" xmlns="http://www.w3.org/2000/svg" xmlns:xlink="http://www.w3.org/1999/xlink" x="0px" y="0px"
	 width="24px" height="24px" viewBox="0 0 24 24" enable-background="new 0 0 24 24" xml:space="preserve">
<path fill="#fff" d="M12,0C5.373,0,0,5.373,0,12c0,4.417,2.627,8.153,6.434,9.878c-0.083-0.423-0.158-1.043-0.173-1.516c-0.025-0.448-0.075-1.069,0.175-1.49c0.573-0.683,1.646-0.348,2.213,0.163c1.036,1.181,1.795,1.438,3.385,0.86c1.424-0.498,2.186-1.529,2.524-2.773c0.354-1.357,0.245-2.885-0.396-4.015c-0.478-0.952-1.397-1.524-2.523-1.564c-2.362-0.073-3.639,1.342-4.103,3.055c-0.097,0.235-0.198,0.475-0.285,0.715c-0.119,0.337-0.087,0.671,0.046,1.001c0.428,0.917,1.063,1.11,2.127,0.763c0.687-0.247,1.139-1.019,1.122-1.742c0.066-0.785-0.297-1.645-1.013-2.037c-0.576-0.364-1.303-0.348-1.902,0.026c-0.865,0.531-0.846,1.687-0.073,2.362c0.771,0.665,1.702,0.317,2.045-0.589c0.019-0.042,0.034-0.085,0.053-0.128c0.214-0.464,0.426-0.924,0.633-1.385c0.118-0.265,0.262-0.53,0.44-0.794c0.121-0.221,0.291-0.413,0.523-0.539c0.212-0.108,0.412-0.225,0.613-0.345c0.061-0.04,0.132-0.078,0.197-0.119c0.474-0.307,1.141-0.16,1.466,0.314c0.329,0.469,0.275,1.116-0.142,1.496C13.794,10.889,13.011,11.422,12,11.422C10.871,11.422,9.912,10.542,9.818,9.553c-0.273-1.048-0.064-2.227,0.612-3.062C11.327,5.192,12,4.706,12,4.706c1.003,0.389,2.166,1.544,2.288,2.562c0.119,0.587,0.284,1.004,0.803,1.343c0.606,0.397,1.416,0.536,2.186,0.429c1.475-0.162,2.797-0.658,4.028-1.275C23.618,6.149,24,3.332,24,0C23.588,0,22.236,0,12,0z"/>
</svg>
