<?xml version="1.0" encoding="utf-8"?>
<!-- Generator: Adobe Illustrator 17.0.0, SVG Export Plug-In . SVG Version: 6.00 Build 0)  -->
<!DOCTYPE svg PUBLIC "-//W3C//DTD SVG 1.1//EN" "http://www.w3.org/Graphics/SVG/1.1/DTD/svg11.dtd">
<svg version="1.1" id="Layer_1" xmlns="http://www.w3.org/2000/svg" xmlns:xlink="http://www.w3.org/1999/xlink" x="0px" y="0px"
	 width="24px" height="24px" viewBox="0 0 24 24" enable-background="new 0 0 24 24" xml:space="preserve">
<path fill="#FFFFFF" d="M23.499,6.348c-0.271-1.907-1.102-3.566-2.388-4.585c-1.282-1.017-3.003-1.494-4.81-1.494
    c-2.805,0-4.21,0.295-5.738,0.88c-1.53,0.587-2.736,1.385-3.526,2.464c-0.784,1.073-1.241,2.28-1.387,3.56
    c-0.149,1.278-0.087,2.586,0.176,3.84c0.272,1.262,0.736,2.463,1.395,3.529c0.78,1.252,1.799,2.287,3.061,3.074
    c1.264,0.791,2.818,1.197,4.464,1.197c2.101,0,4.118-0.392,5.958-1.118c1.84-0.727,3.286-1.77,4.283-3.016
    c1.017-1.292,1.526-2.845,1.526-4.523c0-2.296-0.528-4.435-1.489-6.372C23.742,6.506,23.587,6.425,23.499,6.348z 
    M15.215,9.993c0.003-0.211,0.005-0.418,0.005-0.633c0-2.72-1.64-3.928-3.938-3.928c-2.176,0-3.922,1.163-3.922,3.888
    c0,2.697,1.747,3.901,3.922,3.901c2.29,0,3.945-1.163,3.938-3.859c0-0.215-0.002-0.424-0.005-0.634
    C15.215,10.003,15.215,9.998,15.215,9.993z"/>
</svg>
